<svg id="header_logo_svg" class="c-site-nav__site-logo__img u-inline-block" width="100%" version="1.1" xmlns="http://www.w3.org/2000/svg" xmlns:xlink="http://www.w3.org/1999/xlink" x="0px" y="0px" viewBox="0 0 1314 221" style="enable-background:new 0 0 1314 221;" xml:space="preserve">
<style type="text/css">
	#header_logo_svg .st0{fill:#FF;}
</style>
<path class="st0" d="M153.2,217.9h-21.4l-30.2-107.4c-1.4-5-2.5-10.5-3.3-17.2h-0.6c-0.8,7.2-1.7,12.2-3.1,17.2L64.5,217.9H43.1
	L0.4,68.3h25.2L51.7,176c0.8,3.1,2.2,10.3,3.1,18.3h0.6c0.8-6.9,2.8-15.5,3.6-18.3L89.2,68.3H110L139.4,176
	c1.7,6.1,2.5,10.8,3.3,18.3h0.6c1.1-8,1.9-12.5,3.3-18.3l26.6-107.6H196L153.2,217.9z M268.6,220.6c-35.8,0-56.9-15.5-56.9-45.2
	c0-36.1,35.5-49.9,83.8-54.6v-9.2c0-20.5-11.1-29.7-31.9-29.7c-13,0-27.2,3.9-37.4,9.4l-5.8-15c12.5-6.4,29.4-10.8,45.5-10.8
	c32.5,0,52.4,15.3,52.4,48.5v96C306.4,216.5,288.6,220.6,268.6,220.6z M295.5,133.5c-38,4.4-60.5,15-60.5,41.3
	c0,20.3,12.5,31.6,35.8,31.6c9.4,0,18.9-1.9,24.7-5V133.5z M389.6,220.6c-14.7,0-30.8-3.9-40.2-10.3l6.9-15.5
	c8.9,5.5,20.3,8.6,30.8,8.6c17.5,0,28.9-11.1,28.9-25.8c0-36.6-63.2-21.9-63.2-71.3c0-23,18.6-40.8,46-40.8
	c14.4,0,27.5,3.6,37.4,10.3l-6.4,14.4c-7.8-5-18-8.6-27.7-8.6c-17.2,0-25.2,10.5-25.2,23.6c0,34.1,63.8,20.3,63.8,71.3
	C440.6,200.7,420.1,220.6,389.6,220.6z M525,220.6c-35.8,0-56.9-15.5-56.9-45.2c0-36.1,35.5-49.9,83.8-54.6v-9.2
	c0-20.5-11.1-29.7-31.9-29.7c-13,0-27.2,3.9-37.4,9.4l-5.8-15c12.5-6.4,29.4-10.8,45.5-10.8c32.5,0,52.4,15.3,52.4,48.5v96
	C562.7,216.5,544.9,220.6,525,220.6z M551.9,133.5c-38,4.4-60.5,15-60.5,41.3c0,20.3,12.5,31.6,35.8,31.6c9.4,0,18.9-1.9,24.7-5
	V133.5z M658.4,220.6c-17.8,0-34.4-4.7-44.4-10.5V0.1h24.1v72.7c8.6-4.4,18.9-6.7,30-6.7c35,0,58.5,28.9,58.5,74.1
	C726.6,188.5,703.1,220.6,658.4,220.6z M662,80.8c-8.9,0-16.9,2.2-23.9,5.5v114.8c5.5,2.5,13.6,3.9,21.1,3.9c30.8,0,43-26.1,43-63.5
	S687.8,80.8,662,80.8z M774.1,39.8c-8,0-14.7-6.1-14.7-13.6c0-7.5,6.7-13.6,14.7-13.6c8,0,14.7,6.1,14.7,13.6
	C788.8,33.7,782.1,39.8,774.1,39.8z M761.9,217.9V68.3h24.4v149.5H761.9z M977.1,217.9h-30.5l-25.8-95.1c-1.4-5.3-2.5-11.9-3.1-17.8
	h-0.6c-0.8,6.4-1.9,12.5-3.3,17.8l-25.5,95.1h-30.8L815.4,68.3h34.7l21.6,97.1c1.4,6.1,2.2,12.5,2.8,20.3h0.6
	c1.1-7.5,2.5-15.3,3.9-20.3l26.4-97.1h28l25.2,97.1c1.4,5.5,2.5,11.1,3.6,20.3h0.6c0.8-8.9,1.9-15.5,3.1-20.3l22.7-97.1h30.8
	L977.1,217.9z M1069.2,155.4c2.5,26.1,17.2,41.6,41.9,41.6c13.6,0,28.3-3.9,36.9-8.6l8,21.6c-12.2,6.4-30.8,10.8-49.7,10.8
	c-45.2,0-70.2-31.3-70.2-78.2s23.9-77.4,64.4-77.4c38.8,0,60.8,25.5,60.8,72.1v4.4L1069.2,155.4z M1099.5,85.5
	c-21.4,0-32.2,20.3-32.2,49.7v3.1l61.6-9.7C1128.6,101.3,1119.7,85.5,1099.5,85.5z M1240.9,220.9c-20,0-38-4.4-49.1-10.8V0.1h33.6
	v71.8c8-3.9,18-5.8,28.3-5.8c36.3,0,59.9,28.3,59.9,73C1313.6,189.3,1287.8,220.9,1240.9,220.9z M1245.1,86.1
	c-7.2,0-14.1,1.4-19.7,4.2v106.8c4.4,1.9,11.1,2.8,17.2,2.8c26.4,0,37.4-23,37.4-58C1280.1,106.6,1267.8,86.1,1245.1,86.1z"></path>
</svg>